<mxfile host="app.diagrams.net" agent="Mozilla/5.0 (Windows NT 10.0; Win64; x64) AppleWebKit/537.36 (KHTML, like Gecko) Chrome/128.0.0.0 Safari/537.36" version="24.7.13">
  <diagram name="Page-1" id="c9db0220-8083-56f3-ca83-edcdcd058819">
    <mxGraphModel dx="1654" dy="2144.5" grid="1" gridSize="10" guides="1" tooltips="1" connect="1" arrows="1" fold="1" page="1" pageScale="1.5" pageWidth="826" pageHeight="1169" background="#ffffff" math="0" shadow="0">
      <root>
        <mxCell id="0" style=";html=1;" />
        <mxCell id="1" style=";html=1;" parent="0" />
        <mxCell id="jxEf_Apk8Hc-gCWh7v-a-6" value="" style="rounded=0;whiteSpace=wrap;html=1;fillColor=#F2F2F2;strokeColor=none;fontFamily=Comic Sans MS;fontColor=#b1e4e8;" parent="1" vertex="1">
          <mxGeometry x="190" y="15.5" width="1780" height="1049" as="geometry" />
        </mxCell>
        <mxCell id="3d76a8aef4d5c911-11" value="" style="html=1;shadow=0;dashed=0;shape=mxgraph.bootstrap.rrect;rSize=5;strokeColor=#dddddd;rounded=0;fontSize=12;align=center;" parent="1" vertex="1">
          <mxGeometry x="2160" y="200" width="330" height="400" as="geometry" />
        </mxCell>
        <mxCell id="3d76a8aef4d5c911-12" value="320x200" style="shape=rect;fontSize=24;fillColor=#f0f0f0;strokeColor=none;fontColor=#999999;whiteSpace=wrap;" parent="3d76a8aef4d5c911-11" vertex="1">
          <mxGeometry x="5" y="5" width="320" height="200" as="geometry" />
        </mxCell>
        <mxCell id="3d76a8aef4d5c911-13" value="Thumbnail label" style="html=1;shadow=0;dashed=0;shape=mxgraph.bootstrap.anchor;fontSize=26;align=left;whiteSpace=wrap;" parent="3d76a8aef4d5c911-11" vertex="1">
          <mxGeometry x="15" y="220" width="300" height="40" as="geometry" />
        </mxCell>
        <mxCell id="3d76a8aef4d5c911-14" value="Cras justo odio, dapibus ac facilisis in, egestas eget quam. Donec id elit non mi porta gravida at eget metus. Nullam id dolor id nibh ultricies vehicula ut id elit." style="html=1;shadow=0;dashed=0;shape=mxgraph.bootstrap.anchor;strokeColor=#dddddd;whiteSpace=wrap;align=left;verticalAlign=top;fontSize=14;whiteSpace=wrap;" parent="3d76a8aef4d5c911-11" vertex="1">
          <mxGeometry x="15" y="260" width="300" height="80" as="geometry" />
        </mxCell>
        <mxCell id="3d76a8aef4d5c911-15" value="Button" style="html=1;shadow=0;dashed=0;shape=mxgraph.bootstrap.rrect;rSize=5;fontSize=16;fillColor=#3D8BCD;strokeColor=none;fontColor=#ffffff;whiteSpace=wrap;" parent="3d76a8aef4d5c911-11" vertex="1">
          <mxGeometry y="1" width="80" height="40" relative="1" as="geometry">
            <mxPoint x="15" y="-60" as="offset" />
          </mxGeometry>
        </mxCell>
        <mxCell id="3d76a8aef4d5c911-16" value="Button" style="html=1;shadow=0;dashed=0;shape=mxgraph.bootstrap.rrect;rSize=5;fontSize=16;strokeColor=#dddddd;whiteSpace=wrap;" parent="3d76a8aef4d5c911-11" vertex="1">
          <mxGeometry y="1" width="80" height="40" relative="1" as="geometry">
            <mxPoint x="100" y="-60" as="offset" />
          </mxGeometry>
        </mxCell>
        <mxCell id="3d76a8aef4d5c911-17" value="Template name" style="html=1;shadow=0;dashed=0;shape=mxgraph.bootstrap.rect;strokeColor=none;fillColor=none;fontColor=#999999;align=left;spacingLeft=5;whiteSpace=wrap;rounded=0;" parent="1" vertex="1">
          <mxGeometry x="1420" y="-50" width="200" height="20" as="geometry" />
        </mxCell>
        <mxCell id="3d76a8aef4d5c911-18" value="Uncompleted Profile" style="html=1;shadow=0;dashed=0;shape=mxgraph.bootstrap.rrect;rSize=5;strokeColor=#dddddd;;align=left;spacingLeft=10;fontSize=16;whiteSpace=wrap;rounded=0;" parent="1" vertex="1">
          <mxGeometry x="1420" y="-170" width="800" height="40" as="geometry" />
        </mxCell>
        <mxCell id="3d76a8aef4d5c911-20" value="Hello, %USER_FULL_NAME%" style="html=1;shadow=0;dashed=0;shape=mxgraph.bootstrap.rrect;rSize=5;strokeColor=#dddddd;align=left;spacingLeft=10;fontSize=16;whiteSpace=wrap;rounded=0;" parent="1" vertex="1">
          <mxGeometry x="2270" y="-20" width="800" height="40" as="geometry" />
        </mxCell>
        <mxCell id="3d76a8aef4d5c911-21" value="Insert System Variable" style="html=1;shadow=0;dashed=0;shape=mxgraph.bootstrap.rect;strokeColor=none;fillColor=none;align=right;fontSize=10;whiteSpace=wrap;rounded=0;" parent="1" vertex="1">
          <mxGeometry x="1390" y="-100" width="120" height="20" as="geometry" />
        </mxCell>
        <mxCell id="3d76a8aef4d5c911-24" value="Hello %USER_FULL_NAME%!&#xa;&#xa;At vero eos et accusamus et iusto odio dignissimos ducimus, qui blanditiis praesentium voluptatum deleniti atque corrupti, quosdolores et quas molestias excepturi sint, obcaecati cupiditate non provident, similique sunt in culpa, qui officia deserunt mollitiaanimi, id est laborum et dolorum fuga. Et harum quidem rerum facilis est et expedita distinctio. Nam libero tempore, cum solutanobis est eligendi optio, cumque nihil impedit, quo minus id, quod maxime placeat, facere possimus, omnis voluptas assumendaest, omnis dolor repellendus." style="html=1;shadow=0;dashed=0;shape=mxgraph.bootstrap.rrect;rSize=5;fontSize=12;strokeColor=#dddddd;align=left;spacing=10;verticalAlign=top;whiteSpace=wrap;rounded=0;" parent="1" vertex="1">
          <mxGeometry x="1700" y="1250" width="800" height="240" as="geometry" />
        </mxCell>
        <mxCell id="3d76a8aef4d5c911-25" value="Insert System Variable" style="html=1;shadow=0;dashed=0;shape=mxgraph.bootstrap.rect;strokeColor=none;fillColor=none;align=right;fontSize=10;whiteSpace=wrap;rounded=0;" parent="1" vertex="1">
          <mxGeometry x="1540" y="-120" width="120" height="20" as="geometry" />
        </mxCell>
        <mxCell id="3d76a8aef4d5c911-27" value="%USER_FULL_NAME%&#xa;%USER_EMAIL%&#xa;%USER_PROFILE_COMPLETENESS%&#xa;%USER_NUM_SUCCESS_TRADES%&#xa;%USER_FULL_NAME%&#xa;%USER_EMAIL%&#xa;%USER_PROFILE_COMPLETENESS%&#xa;%USER_NUM_SUCCESS_SELLS%" style="html=1;shadow=0;dashed=0;shape=mxgraph.bootstrap.rrect;fontSize=12;rSize=2;strokeColor=#dddddd;align=left;verticalAlign=top;spacing=10;shadow=1;whiteSpace=wrap;rounded=0;" parent="1" vertex="1">
          <mxGeometry x="2060" y="650" width="240" height="140" as="geometry" />
        </mxCell>
        <mxCell id="3d76a8aef4d5c911-28" value="Message Type" style="html=1;shadow=0;dashed=0;shape=mxgraph.bootstrap.rect;strokeColor=none;fillColor=none;fontColor=#999999;align=left;spacingLeft=5;whiteSpace=wrap;rounded=0;" parent="1" vertex="1">
          <mxGeometry x="2220" y="1190" width="200" height="20" as="geometry" />
        </mxCell>
        <mxCell id="3d76a8aef4d5c911-29" value="Email + Push" style="html=1;shadow=0;dashed=0;shape=mxgraph.bootstrap.rrect;rSize=5;strokeColor=#dddddd;align=left;spacingLeft=10;fontSize=16;whiteSpace=wrap;rounded=0;" parent="1" vertex="1">
          <mxGeometry x="660" y="-120" width="390" height="40" as="geometry" />
        </mxCell>
        <mxCell id="3d76a8aef4d5c911-31" value="Tap target" style="html=1;shadow=0;dashed=0;shape=mxgraph.bootstrap.rect;strokeColor=none;fillColor=none;fontColor=#999999;align=left;spacingLeft=5;whiteSpace=wrap;rounded=0;" parent="1" vertex="1">
          <mxGeometry x="755" y="-70" width="200" height="20" as="geometry" />
        </mxCell>
        <mxCell id="3d76a8aef4d5c911-32" value="Profile Screen" style="html=1;shadow=0;dashed=0;shape=mxgraph.bootstrap.rrect;rSize=5;strokeColor=#dddddd;align=left;spacingLeft=10;fontSize=16;whiteSpace=wrap;rounded=0;" parent="1" vertex="1">
          <mxGeometry x="210" y="-130" width="390" height="40" as="geometry" />
        </mxCell>
        <mxCell id="3d76a8aef4d5c911-34" value="Send to Group" style="html=1;shadow=0;dashed=0;shape=mxgraph.bootstrap.rect;strokeColor=none;fillColor=none;fontColor=#999999;align=left;spacingLeft=5;whiteSpace=wrap;rounded=0;" parent="1" vertex="1">
          <mxGeometry x="240" y="1200" width="200" height="20" as="geometry" />
        </mxCell>
        <mxCell id="3d76a8aef4d5c911-35" value="Top Management" style="html=1;shadow=0;dashed=0;shape=mxgraph.bootstrap.checkbox;fontSize=12;strokeColor=#999999;align=left;labelPosition=right;spacingLeft=5;rounded=0;" parent="1" vertex="1">
          <mxGeometry x="490" y="1330" width="14" height="14" as="geometry" />
        </mxCell>
        <mxCell id="3d76a8aef4d5c911-36" value="Marketing Department" style="html=1;shadow=0;dashed=0;shape=mxgraph.bootstrap.rrect;fontSize=12;rSize=3;strokeColor=#999999;align=left;labelPosition=right;spacingLeft=5;rounded=0;" parent="1" vertex="1">
          <mxGeometry x="226" y="1300" width="14" height="14" as="geometry" />
        </mxCell>
        <mxCell id="3d76a8aef4d5c911-37" value="Design Department" style="html=1;shadow=0;dashed=0;shape=mxgraph.bootstrap.checkbox;fontSize=12;strokeColor=#999999;align=left;labelPosition=right;spacingLeft=5;rounded=0;" parent="1" vertex="1">
          <mxGeometry x="808" y="1250" width="14" height="14" as="geometry" />
        </mxCell>
        <mxCell id="3d76a8aef4d5c911-38" value="Financial Department" style="html=1;shadow=0;dashed=0;shape=mxgraph.bootstrap.rrect;fontSize=12;rSize=3;strokeColor=#999999;align=left;labelPosition=right;spacingLeft=5;rounded=0;" parent="1" vertex="1">
          <mxGeometry x="920" y="1390" width="14" height="14" as="geometry" />
        </mxCell>
        <mxCell id="3d76a8aef4d5c911-39" value="Supply Department" style="html=1;shadow=0;dashed=0;shape=mxgraph.bootstrap.rrect;fontSize=12;rSize=3;strokeColor=#999999;align=left;labelPosition=right;spacingLeft=5;rounded=0;" parent="1" vertex="1">
          <mxGeometry x="1060" y="1270" width="14" height="14" as="geometry" />
        </mxCell>
        <mxCell id="3d76a8aef4d5c911-40" value="Set Type" style="html=1;shadow=0;dashed=0;shape=mxgraph.bootstrap.rect;strokeColor=none;fillColor=none;fontColor=#999999;align=left;spacingLeft=5;whiteSpace=wrap;rounded=0;" parent="1" vertex="1">
          <mxGeometry x="40" y="-80" width="200" height="20" as="geometry" />
        </mxCell>
        <mxCell id="3d76a8aef4d5c911-42" value="News" style="html=1;shadow=0;dashed=0;shape=mxgraph.bootstrap.rrect;align=center;rSize=3;strokeColor=none;fillColor=#58B957;fontColor=#ffffff;fontStyle=1;fontSize=10;whiteSpace=wrap;rounded=0;" parent="1" vertex="1">
          <mxGeometry x="320" y="-44" width="40" height="14" as="geometry" />
        </mxCell>
        <mxCell id="3d76a8aef4d5c911-43" value="" style="html=1;shadow=0;dashed=0;shape=mxgraph.bootstrap.radioButton;strokeColor=#999999;fillColor=#ffffff;rounded=0;fontSize=12;fontColor=#000000;align=center;" parent="1" vertex="1">
          <mxGeometry x="530" y="1284" width="14" height="14" as="geometry" />
        </mxCell>
        <mxCell id="3d76a8aef4d5c911-44" value="&lt;font style=&quot;font-size: 30px;&quot;&gt;start&lt;/font&gt;" style="html=1;shadow=0;dashed=0;shape=mxgraph.bootstrap.rrect;align=center;rSize=3;strokeColor=none;fillColor=#97E5E8;fontColor=#ffffff;fontStyle=1;fontSize=10;whiteSpace=wrap;rounded=0;" parent="1" vertex="1">
          <mxGeometry x="768.5" y="790" width="283" height="60" as="geometry" />
        </mxCell>
        <mxCell id="3d76a8aef4d5c911-45" value="" style="shape=ellipse;dashed=0;strokeColor=#999999;fillColor=#ffffff;html=1;rounded=0;shadow=1;fontSize=12;fontColor=#000000;align=center;" parent="1" vertex="1">
          <mxGeometry x="646" y="1220" width="14" height="14" as="geometry" />
        </mxCell>
        <mxCell id="3d76a8aef4d5c911-46" value="Documents" style="html=1;shadow=0;dashed=0;shape=mxgraph.bootstrap.rrect;align=center;rSize=3;strokeColor=none;fillColor=#EFAC43;fontColor=#ffffff;fontStyle=1;fontSize=10;whiteSpace=wrap;rounded=0;" parent="1" vertex="1">
          <mxGeometry x="1789" y="1250" width="70" height="14" as="geometry" />
        </mxCell>
        <mxCell id="3d76a8aef4d5c911-47" value="" style="shape=ellipse;dashed=0;strokeColor=#999999;fillColor=#ffffff;html=1;rounded=0;shadow=1;fontSize=12;fontColor=#000000;align=center;" parent="1" vertex="1">
          <mxGeometry x="576" y="1206" width="14" height="14" as="geometry" />
        </mxCell>
        <mxCell id="3d76a8aef4d5c911-48" value="Media" style="html=1;shadow=0;dashed=0;shape=mxgraph.bootstrap.rrect;align=center;rSize=3;strokeColor=none;fillColor=#3D8BCD;fontColor=#ffffff;fontStyle=1;fontSize=10;whiteSpace=wrap;rounded=0;" parent="1" vertex="1">
          <mxGeometry x="1390" y="1680" width="40" height="14" as="geometry" />
        </mxCell>
        <mxCell id="3d76a8aef4d5c911-49" value="" style="shape=ellipse;dashed=0;strokeColor=#999999;fillColor=#ffffff;html=1;rounded=0;shadow=1;fontSize=12;fontColor=#000000;align=center;" parent="1" vertex="1">
          <mxGeometry x="508" y="1210" width="14" height="14" as="geometry" />
        </mxCell>
        <mxCell id="3d76a8aef4d5c911-50" value="Text" style="html=1;shadow=0;dashed=0;shape=mxgraph.bootstrap.rrect;align=center;rSize=3;strokeColor=none;fillColor=#999999;fontColor=#ffffff;fontStyle=1;fontSize=10;whiteSpace=wrap;rounded=0;" parent="1" vertex="1">
          <mxGeometry x="800" y="1630" width="30" height="14" as="geometry" />
        </mxCell>
        <mxCell id="3d76a8aef4d5c911-51" value="Save Template" style="html=1;shadow=0;dashed=0;shape=mxgraph.bootstrap.rrect;align=center;rSize=5;strokeColor=none;fillColor=#3D8BCD;fontColor=#ffffff;fontSize=16;whiteSpace=wrap;rounded=0;" parent="1" vertex="1">
          <mxGeometry x="440" y="-70" width="150" height="40" as="geometry" />
        </mxCell>
        <mxCell id="3d76a8aef4d5c911-52" value="Cancel" style="html=1;shadow=0;dashed=0;shape=mxgraph.bootstrap.rrect;align=center;rSize=5;strokeColor=#dddddd;fontSize=16;whiteSpace=wrap;rounded=0;" parent="1" vertex="1">
          <mxGeometry x="950" y="-80" width="100" height="40" as="geometry" />
        </mxCell>
        <mxCell id="3d76a8aef4d5c911-53" value="Delete Template" style="html=1;shadow=0;dashed=0;shape=mxgraph.bootstrap.rrect;align=center;rSize=5;strokeColor=none;fillColor=#DB524C;fontColor=#ffffff;fontSize=16;whiteSpace=wrap;rounded=0;" parent="1" vertex="1">
          <mxGeometry x="1130" y="-150" width="170" height="40" as="geometry" />
        </mxCell>
        <mxCell id="3d76a8aef4d5c911-54" value="" style="html=1;shadow=0;dashed=0;shape=mxgraph.bootstrap.rrect;rSize=5;strokeColor=#dddddd;rounded=0;fontSize=12;align=center;" parent="1" vertex="1">
          <mxGeometry x="2320" y="727" width="330" height="400" as="geometry" />
        </mxCell>
        <mxCell id="3d76a8aef4d5c911-55" value="320x200" style="shape=rect;fontSize=24;fillColor=#f0f0f0;strokeColor=none;fontColor=#999999;whiteSpace=wrap;" parent="3d76a8aef4d5c911-54" vertex="1">
          <mxGeometry x="5" y="5" width="320" height="200" as="geometry" />
        </mxCell>
        <mxCell id="3d76a8aef4d5c911-56" value="Thumbnail label" style="html=1;shadow=0;dashed=0;shape=mxgraph.bootstrap.anchor;fontSize=26;align=left;whiteSpace=wrap;" parent="3d76a8aef4d5c911-54" vertex="1">
          <mxGeometry x="15" y="220" width="300" height="40" as="geometry" />
        </mxCell>
        <mxCell id="3d76a8aef4d5c911-57" value="Cras justo odio, dapibus ac facilisis in, egestas eget quam. Donec id elit non mi porta gravida at eget metus. Nullam id dolor id nibh ultricies vehicula ut id elit." style="html=1;shadow=0;dashed=0;shape=mxgraph.bootstrap.anchor;strokeColor=#dddddd;whiteSpace=wrap;align=left;verticalAlign=top;fontSize=14;whiteSpace=wrap;" parent="3d76a8aef4d5c911-54" vertex="1">
          <mxGeometry x="15" y="260" width="300" height="80" as="geometry" />
        </mxCell>
        <mxCell id="3d76a8aef4d5c911-58" value="Button" style="html=1;shadow=0;dashed=0;shape=mxgraph.bootstrap.rrect;rSize=5;fontSize=16;fillColor=#3D8BCD;strokeColor=none;fontColor=#ffffff;whiteSpace=wrap;" parent="3d76a8aef4d5c911-54" vertex="1">
          <mxGeometry y="1" width="80" height="40" relative="1" as="geometry">
            <mxPoint x="15" y="-60" as="offset" />
          </mxGeometry>
        </mxCell>
        <mxCell id="3d76a8aef4d5c911-59" value="Button" style="html=1;shadow=0;dashed=0;shape=mxgraph.bootstrap.rrect;rSize=5;fontSize=16;strokeColor=#dddddd;whiteSpace=wrap;" parent="3d76a8aef4d5c911-54" vertex="1">
          <mxGeometry y="1" width="80" height="40" relative="1" as="geometry">
            <mxPoint x="100" y="-60" as="offset" />
          </mxGeometry>
        </mxCell>
        <mxCell id="jxEf_Apk8Hc-gCWh7v-a-1" value="rogo" style="rounded=0;whiteSpace=wrap;html=1;" parent="1" vertex="1">
          <mxGeometry x="130" y="50" width="990" height="89.5" as="geometry" />
        </mxCell>
        <mxCell id="jxEf_Apk8Hc-gCWh7v-a-2" value="" style="rounded=0;whiteSpace=wrap;html=1;fillColor=#B1E4E8;" parent="1" vertex="1">
          <mxGeometry x="130" y="139.5" width="1780" height="30.5" as="geometry" />
        </mxCell>
        <mxCell id="jxEf_Apk8Hc-gCWh7v-a-11" value="" style="rounded=0;whiteSpace=wrap;html=1;" parent="1" vertex="1">
          <mxGeometry x="1120" y="50" width="790" height="89.5" as="geometry" />
        </mxCell>
        <mxCell id="jxEf_Apk8Hc-gCWh7v-a-8" value="" style="ellipse;whiteSpace=wrap;html=1;aspect=fixed;strokeColor=#6AD7F2;strokeWidth=3;" parent="1" vertex="1">
          <mxGeometry x="1810" y="61" width="75" height="75" as="geometry" />
        </mxCell>
        <mxCell id="jxEf_Apk8Hc-gCWh7v-a-3" value="" style="shape=actor;whiteSpace=wrap;html=1;strokeColor=#6AD7F2;strokeWidth=3;" parent="1" vertex="1">
          <mxGeometry x="1824.75" y="71" width="45.5" height="55" as="geometry" />
        </mxCell>
        <mxCell id="jxEf_Apk8Hc-gCWh7v-a-13" value="pkkkkkkkkkkk" style="shape=table;startSize=15;container=1;collapsible=0;childLayout=tableLayout;strokeColor=#b1e4e8;fontSize=16;labelBackgroundColor=#b1e4e8;textShadow=0;strokeWidth=2;fontColor=#b1e4e8;" parent="1" vertex="1">
          <mxGeometry x="1580" y="55.13000000000011" width="97.5" height="79.25" as="geometry" />
        </mxCell>
        <mxCell id="jxEf_Apk8Hc-gCWh7v-a-18" value="" style="shape=tableRow;horizontal=0;startSize=0;swimlaneHead=0;swimlaneBody=0;strokeColor=inherit;top=0;left=0;bottom=0;right=0;collapsible=0;dropTarget=0;fillColor=none;points=[[0,0.5],[1,0.5]];portConstraint=eastwest;fontSize=16;" parent="jxEf_Apk8Hc-gCWh7v-a-13" vertex="1">
          <mxGeometry y="15" width="97.5" height="21" as="geometry" />
        </mxCell>
        <mxCell id="jxEf_Apk8Hc-gCWh7v-a-19" value="" style="shape=partialRectangle;html=1;whiteSpace=wrap;connectable=0;strokeColor=inherit;overflow=hidden;fillColor=none;top=0;left=0;bottom=0;right=0;pointerEvents=1;fontSize=16;" parent="jxEf_Apk8Hc-gCWh7v-a-18" vertex="1">
          <mxGeometry width="33" height="21" as="geometry">
            <mxRectangle width="33" height="21" as="alternateBounds" />
          </mxGeometry>
        </mxCell>
        <mxCell id="jxEf_Apk8Hc-gCWh7v-a-20" value="" style="shape=partialRectangle;html=1;whiteSpace=wrap;connectable=0;strokeColor=inherit;overflow=hidden;fillColor=none;top=0;left=0;bottom=0;right=0;pointerEvents=1;fontSize=16;" parent="jxEf_Apk8Hc-gCWh7v-a-18" vertex="1">
          <mxGeometry x="33" width="32" height="21" as="geometry">
            <mxRectangle width="32" height="21" as="alternateBounds" />
          </mxGeometry>
        </mxCell>
        <mxCell id="jxEf_Apk8Hc-gCWh7v-a-21" value="" style="shape=partialRectangle;html=1;whiteSpace=wrap;connectable=0;strokeColor=inherit;overflow=hidden;fillColor=#A3FFFF;top=0;left=0;bottom=0;right=0;pointerEvents=1;fontSize=16;" parent="jxEf_Apk8Hc-gCWh7v-a-18" vertex="1">
          <mxGeometry x="65" width="33" height="21" as="geometry">
            <mxRectangle width="33" height="21" as="alternateBounds" />
          </mxGeometry>
        </mxCell>
        <mxCell id="jxEf_Apk8Hc-gCWh7v-a-22" value="" style="shape=tableRow;horizontal=0;startSize=0;swimlaneHead=0;swimlaneBody=0;strokeColor=inherit;top=0;left=0;bottom=0;right=0;collapsible=0;dropTarget=0;fillColor=none;points=[[0,0.5],[1,0.5]];portConstraint=eastwest;fontSize=16;" parent="jxEf_Apk8Hc-gCWh7v-a-13" vertex="1">
          <mxGeometry y="36" width="97.5" height="21" as="geometry" />
        </mxCell>
        <mxCell id="jxEf_Apk8Hc-gCWh7v-a-23" value="" style="shape=partialRectangle;html=1;whiteSpace=wrap;connectable=0;strokeColor=inherit;overflow=hidden;fillColor=none;top=0;left=0;bottom=0;right=0;pointerEvents=1;fontSize=16;" parent="jxEf_Apk8Hc-gCWh7v-a-22" vertex="1">
          <mxGeometry width="33" height="21" as="geometry">
            <mxRectangle width="33" height="21" as="alternateBounds" />
          </mxGeometry>
        </mxCell>
        <mxCell id="jxEf_Apk8Hc-gCWh7v-a-24" value="" style="shape=partialRectangle;html=1;whiteSpace=wrap;connectable=0;strokeColor=inherit;overflow=hidden;fillColor=none;top=0;left=0;bottom=0;right=0;pointerEvents=1;fontSize=16;" parent="jxEf_Apk8Hc-gCWh7v-a-22" vertex="1">
          <mxGeometry x="33" width="32" height="21" as="geometry">
            <mxRectangle width="32" height="21" as="alternateBounds" />
          </mxGeometry>
        </mxCell>
        <mxCell id="jxEf_Apk8Hc-gCWh7v-a-25" value="" style="shape=partialRectangle;html=1;whiteSpace=wrap;connectable=0;strokeColor=inherit;overflow=hidden;fillColor=none;top=0;left=0;bottom=0;right=0;pointerEvents=1;fontSize=16;" parent="jxEf_Apk8Hc-gCWh7v-a-22" vertex="1">
          <mxGeometry x="65" width="33" height="21" as="geometry">
            <mxRectangle width="33" height="21" as="alternateBounds" />
          </mxGeometry>
        </mxCell>
        <mxCell id="jxEf_Apk8Hc-gCWh7v-a-14" value="" style="shape=tableRow;horizontal=0;startSize=0;swimlaneHead=0;swimlaneBody=0;strokeColor=inherit;top=0;left=0;bottom=0;right=0;collapsible=0;dropTarget=0;fillColor=none;points=[[0,0.5],[1,0.5]];portConstraint=eastwest;fontSize=16;" parent="jxEf_Apk8Hc-gCWh7v-a-13" vertex="1">
          <mxGeometry y="57" width="97.5" height="22" as="geometry" />
        </mxCell>
        <mxCell id="jxEf_Apk8Hc-gCWh7v-a-15" value="" style="shape=partialRectangle;html=1;whiteSpace=wrap;connectable=0;strokeColor=inherit;overflow=hidden;fillColor=#ff8f8f;top=0;left=0;bottom=0;right=0;pointerEvents=1;fontSize=16;" parent="jxEf_Apk8Hc-gCWh7v-a-14" vertex="1">
          <mxGeometry width="33" height="22" as="geometry">
            <mxRectangle width="33" height="22" as="alternateBounds" />
          </mxGeometry>
        </mxCell>
        <mxCell id="jxEf_Apk8Hc-gCWh7v-a-16" value="" style="shape=partialRectangle;html=1;whiteSpace=wrap;connectable=0;strokeColor=inherit;overflow=hidden;fillColor=none;top=0;left=0;bottom=0;right=0;pointerEvents=1;fontSize=16;" parent="jxEf_Apk8Hc-gCWh7v-a-14" vertex="1">
          <mxGeometry x="33" width="32" height="22" as="geometry">
            <mxRectangle width="32" height="22" as="alternateBounds" />
          </mxGeometry>
        </mxCell>
        <mxCell id="jxEf_Apk8Hc-gCWh7v-a-17" value="" style="shape=partialRectangle;html=1;whiteSpace=wrap;connectable=0;strokeColor=inherit;overflow=hidden;fillColor=none;top=0;left=0;bottom=0;right=0;pointerEvents=1;fontSize=16;" parent="jxEf_Apk8Hc-gCWh7v-a-14" vertex="1">
          <mxGeometry x="65" width="33" height="22" as="geometry">
            <mxRectangle width="33" height="22" as="alternateBounds" />
          </mxGeometry>
        </mxCell>
        <mxCell id="jxEf_Apk8Hc-gCWh7v-a-27" value="" style="sketch=0;outlineConnect=0;fontColor=#232F3E;gradientColor=none;fillColor=#6AD7F2;strokeColor=none;dashed=1;verticalLabelPosition=bottom;verticalAlign=top;align=center;html=1;fontSize=12;fontStyle=0;aspect=fixed;pointerEvents=1;shape=mxgraph.aws4.gear;rotation=-30;strokeWidth=0.5;" parent="1" vertex="1">
          <mxGeometry x="1710" y="60.25" width="69" height="69" as="geometry" />
        </mxCell>
        <mxCell id="jxEf_Apk8Hc-gCWh7v-a-34" value="" style="rounded=0;whiteSpace=wrap;html=1;fillColor=#b1e4e8;strokeColor=#b1e4e8;" parent="1" vertex="1">
          <mxGeometry x="130" y="1020" width="1790" height="107" as="geometry" />
        </mxCell>
        <mxCell id="jxEf_Apk8Hc-gCWh7v-a-35" value="" style="rounded=0;whiteSpace=wrap;html=1;strokeColor=#FFFFFF;" parent="1" vertex="1">
          <mxGeometry x="130" y="1050" width="1790" height="80" as="geometry" />
        </mxCell>
        <mxCell id="jxEf_Apk8Hc-gCWh7v-a-45" value="" style="rounded=0;whiteSpace=wrap;html=1;strokeColor=#FFFFFF;" parent="1" vertex="1">
          <mxGeometry x="120" y="30" width="70" height="1080" as="geometry" />
        </mxCell>
        <mxCell id="jxEf_Apk8Hc-gCWh7v-a-46" value="" style="rounded=0;whiteSpace=wrap;html=1;strokeColor=#FFFFFF;" parent="1" vertex="1">
          <mxGeometry x="130" y="47" width="70" height="1080" as="geometry" />
        </mxCell>
        <mxCell id="jxEf_Apk8Hc-gCWh7v-a-47" value="" style="rounded=0;whiteSpace=wrap;html=1;strokeColor=#FFFFFF;" parent="1" vertex="1">
          <mxGeometry x="1910" y="47" width="70" height="1080" as="geometry" />
        </mxCell>
        <mxCell id="jxEf_Apk8Hc-gCWh7v-a-49" value="" style="endArrow=none;html=1;rounded=0;entryX=0;entryY=0;entryDx=0;entryDy=0;" parent="1" edge="1">
          <mxGeometry width="50" height="50" relative="1" as="geometry">
            <mxPoint x="-640" y="-40.00135922330011" as="sourcePoint" />
            <mxPoint x="-710" y="-77.0999999999992" as="targetPoint" />
          </mxGeometry>
        </mxCell>
        <mxCell id="jxEf_Apk8Hc-gCWh7v-a-50" value="" style="endArrow=none;html=1;rounded=0;entryX=0;entryY=1;entryDx=0;entryDy=0;" parent="1" edge="1">
          <mxGeometry width="50" height="50" relative="1" as="geometry">
            <mxPoint x="-270" y="1128.7005825242713" as="sourcePoint" />
            <mxPoint x="-340" y="1164.999999999999" as="targetPoint" />
          </mxGeometry>
        </mxCell>
        <mxCell id="jxEf_Apk8Hc-gCWh7v-a-51" value="" style="verticalLabelPosition=bottom;verticalAlign=top;html=1;shape=mxgraph.basic.frame;dx=10;whiteSpace=wrap;fillColor=#b1e4e8;strokeWidth=2;" parent="1" vertex="1">
          <mxGeometry x="450" y="300" width="920" height="450" as="geometry" />
        </mxCell>
        <mxCell id="jxEf_Apk8Hc-gCWh7v-a-52" value="" style="verticalLabelPosition=bottom;verticalAlign=top;html=1;shape=mxgraph.basic.frame;dx=10;whiteSpace=wrap;fillColor=#b1e4e8;" parent="1" vertex="1">
          <mxGeometry x="1480" y="300" width="360" height="610" as="geometry" />
        </mxCell>
        <mxCell id="9Rcvw0Xu1nzuS5PkfNAF-9" value="" style="rounded=0;whiteSpace=wrap;html=1;fillColor=#b1e4e8;" parent="1" vertex="1">
          <mxGeometry x="1490" y="310" width="340" height="590" as="geometry" />
        </mxCell>
        <mxCell id="9Rcvw0Xu1nzuS5PkfNAF-5" value="&lt;font style=&quot;font-size: 30px;&quot;&gt;用語・計算&lt;/font&gt;" style="rounded=0;whiteSpace=wrap;html=1;" parent="1" vertex="1">
          <mxGeometry x="1490" y="350" width="340" height="125" as="geometry" />
        </mxCell>
        <mxCell id="9Rcvw0Xu1nzuS5PkfNAF-6" value="&lt;span style=&quot;font-size: 30px;&quot;&gt;データベース&lt;/span&gt;" style="rounded=0;whiteSpace=wrap;html=1;" parent="1" vertex="1">
          <mxGeometry x="1490" y="490" width="340" height="125" as="geometry" />
        </mxCell>
        <mxCell id="9Rcvw0Xu1nzuS5PkfNAF-7" value="&lt;span style=&quot;font-size: 30px;&quot;&gt;表計算&lt;/span&gt;" style="rounded=0;whiteSpace=wrap;html=1;" parent="1" vertex="1">
          <mxGeometry x="1490" y="630" width="340" height="125" as="geometry" />
        </mxCell>
        <mxCell id="9Rcvw0Xu1nzuS5PkfNAF-8" value="&lt;span style=&quot;font-size: 30px;&quot;&gt;アルゴリズム&lt;/span&gt;" style="rounded=0;whiteSpace=wrap;html=1;" parent="1" vertex="1">
          <mxGeometry x="1490" y="770" width="340" height="125" as="geometry" />
        </mxCell>
        <mxCell id="9Rcvw0Xu1nzuS5PkfNAF-10" value="&lt;font style=&quot;font-size: 29px;&quot; color=&quot;#ffffff&quot;&gt;MODE&lt;/font&gt;" style="rounded=0;whiteSpace=wrap;html=1;fillColor=#b1e4e8;" parent="1" vertex="1">
          <mxGeometry x="1490" y="310" width="340" height="43" as="geometry" />
        </mxCell>
        <mxCell id="9Rcvw0Xu1nzuS5PkfNAF-11" value="" style="rounded=1;whiteSpace=wrap;html=1;" parent="1" vertex="1">
          <mxGeometry x="-170" y="-230" width="120" height="60" as="geometry" />
        </mxCell>
        <mxCell id="9Rcvw0Xu1nzuS5PkfNAF-13" value="&lt;font size=&quot;1&quot; style=&quot;&quot; color=&quot;#79e4e8&quot;&gt;&lt;u style=&quot;font-size: 30px;&quot;&gt;HOME&lt;/u&gt;&lt;/font&gt;" style="rounded=0;whiteSpace=wrap;html=1;fontColor=#b1e4e8;fillColor=none;strokeColor=none;" parent="1" vertex="1">
          <mxGeometry x="450" y="240" width="120" height="60" as="geometry" />
        </mxCell>
        <mxCell id="UFXFDAocX6gkSLZ_GbVa-2" value="+" style="rounded=0;whiteSpace=wrap;html=1;fillColor=#3762C5;gradientColor=#7ED6FC;gradientDirection=west;" parent="1" vertex="1">
          <mxGeometry x="460" y="310" width="900" height="430" as="geometry" />
        </mxCell>
        <mxCell id="UFXFDAocX6gkSLZ_GbVa-6" value="&lt;font color=&quot;#ffffff&quot;&gt;用語・計算&lt;/font&gt;" style="shape=ellipse;fillColor=#eeeeee;strokeColor=#999999;gradientColor=#cccccc;html=1;align=left;spacingLeft=4;fontSize=17;fontColor=#666666;labelPosition=right;shadow=0;" parent="1" vertex="1">
          <mxGeometry x="488" y="400" width="15" height="15" as="geometry" />
        </mxCell>
        <mxCell id="UFXFDAocX6gkSLZ_GbVa-7" value="&lt;font color=&quot;#ffffff&quot;&gt;四択一答&lt;/font&gt;" style="shape=ellipse;fillColor=#eeeeee;strokeColor=#999999;gradientColor=#cccccc;html=1;align=left;spacingLeft=4;fontSize=17;fontColor=#666666;labelPosition=right;shadow=0;" parent="1" vertex="1">
          <mxGeometry x="992.5" y="392.5" width="15" height="15" as="geometry" />
        </mxCell>
        <mxCell id="UFXFDAocX6gkSLZ_GbVa-8" value="" style="shape=ellipse;fillColor=#eeeeee;strokeColor=#999999;gradientColor=#cccccc;html=1;align=left;spacingLeft=4;fontSize=17;fontColor=#666666;labelPosition=right;shadow=0;" parent="1" vertex="1">
          <mxGeometry x="1207.5" y="1150" width="15" height="15" as="geometry" />
        </mxCell>
        <mxCell id="UFXFDAocX6gkSLZ_GbVa-9" value="&lt;font color=&quot;#ffffff&quot;&gt;問題数&lt;/font&gt;" style="shape=ellipse;fillColor=#eeeeee;strokeColor=#999999;gradientColor=#cccccc;html=1;align=left;spacingLeft=4;fontSize=17;fontColor=#666666;labelPosition=right;shadow=0;" parent="1" vertex="1">
          <mxGeometry x="750" y="400" width="15" height="15" as="geometry" />
        </mxCell>
        <mxCell id="UFXFDAocX6gkSLZ_GbVa-10" value="&lt;font color=&quot;#ffffff&quot;&gt;タイマー&lt;/font&gt;" style="shape=ellipse;fillColor=#eeeeee;strokeColor=#999999;gradientColor=#cccccc;html=1;align=left;spacingLeft=4;fontSize=17;fontColor=#666666;labelPosition=right;shadow=0;" parent="1" vertex="1">
          <mxGeometry x="750" y="480" width="15" height="15" as="geometry" />
        </mxCell>
        <mxCell id="UFXFDAocX6gkSLZ_GbVa-11" value="&lt;font color=&quot;#ffffff&quot;&gt;アルゴリズム&lt;/font&gt;" style="shape=ellipse;fillColor=#eeeeee;strokeColor=#999999;gradientColor=#cccccc;html=1;align=left;spacingLeft=4;fontSize=17;fontColor=#666666;labelPosition=right;shadow=0;" parent="1" vertex="1">
          <mxGeometry x="488" y="517.5" width="15" height="15" as="geometry" />
        </mxCell>
        <mxCell id="UFXFDAocX6gkSLZ_GbVa-12" value="&lt;font color=&quot;#ffffff&quot;&gt;表計算&lt;/font&gt;" style="shape=ellipse;fillColor=#eeeeee;strokeColor=#999999;gradientColor=#cccccc;html=1;align=left;spacingLeft=4;fontSize=17;fontColor=#666666;labelPosition=right;shadow=0;" parent="1" vertex="1">
          <mxGeometry x="488" y="475" width="15" height="15" as="geometry" />
        </mxCell>
        <mxCell id="UFXFDAocX6gkSLZ_GbVa-13" value="&lt;font color=&quot;#ffffff&quot;&gt;データベース&lt;/font&gt;" style="shape=ellipse;fillColor=#eeeeee;strokeColor=#999999;gradientColor=#cccccc;html=1;align=left;spacingLeft=4;fontSize=17;fontColor=#666666;labelPosition=right;shadow=0;" parent="1" vertex="1">
          <mxGeometry x="488" y="440" width="15" height="15" as="geometry" />
        </mxCell>
        <mxCell id="UFXFDAocX6gkSLZ_GbVa-15" value="&lt;span style=&quot;font-size: 18px;&quot;&gt;種別&lt;/span&gt;" style="rounded=0;whiteSpace=wrap;html=1;fillColor=none;strokeColor=none;" parent="1" vertex="1">
          <mxGeometry x="498" y="337.5" width="90" height="40" as="geometry" />
        </mxCell>
        <mxCell id="UFXFDAocX6gkSLZ_GbVa-20" value="" style="swimlane;shape=mxgraph.bootstrap.anchor;strokeColor=none;fillColor=none;fontColor=#0085FC;fontStyle=0;childLayout=stackLayout;horizontal=0;startSize=0;horizontalStack=1;resizeParent=1;resizeParentMax=0;resizeLast=0;collapsible=0;marginBottom=0;whiteSpace=wrap;html=1;" parent="1" vertex="1">
          <mxGeometry x="1230" y="1170" width="210" height="40" as="geometry" />
        </mxCell>
        <mxCell id="UFXFDAocX6gkSLZ_GbVa-21" value="Active" style="text;strokeColor=inherit;align=center;verticalAlign=middle;spacingLeft=10;spacingRight=10;overflow=hidden;points=[[0,0.5],[1,0.5]];portConstraint=eastwest;rotatable=0;whiteSpace=wrap;html=1;shape=mxgraph.bootstrap.rrect;rSize=5;fillColor=#0085FC;fontColor=#ffffff;fontSize=14;" parent="UFXFDAocX6gkSLZ_GbVa-20" vertex="1">
          <mxGeometry width="70" height="40" as="geometry" />
        </mxCell>
        <mxCell id="UFXFDAocX6gkSLZ_GbVa-24" value="Link" style="text;strokeColor=inherit;align=center;verticalAlign=middle;spacingLeft=10;spacingRight=10;overflow=hidden;points=[[0,0.5],[1,0.5]];portConstraint=eastwest;rotatable=0;whiteSpace=wrap;html=1;shape=mxgraph.bootstrap.rrect;rSize=5;fillColor=inherit;fontColor=inherit;fontSize=14;" parent="UFXFDAocX6gkSLZ_GbVa-20" vertex="1">
          <mxGeometry x="70" width="60" height="40" as="geometry" />
        </mxCell>
        <mxCell id="UFXFDAocX6gkSLZ_GbVa-25" value="Disabled" style="text;strokeColor=inherit;align=center;verticalAlign=middle;spacingLeft=10;spacingRight=10;overflow=hidden;points=[[0,0.5],[1,0.5]];portConstraint=eastwest;rotatable=0;whiteSpace=wrap;html=1;shape=mxgraph.bootstrap.rrect;rSize=5;fillColor=inherit;fontColor=#7D868C;fontSize=14;" parent="UFXFDAocX6gkSLZ_GbVa-20" vertex="1">
          <mxGeometry x="130" width="80" height="40" as="geometry" />
        </mxCell>
        <mxCell id="UFXFDAocX6gkSLZ_GbVa-22" value="秒数のプル" style="text;strokeColor=inherit;align=center;verticalAlign=middle;spacingLeft=10;spacingRight=10;overflow=hidden;points=[[0,0.5],[1,0.5]];portConstraint=eastwest;rotatable=0;whiteSpace=wrap;html=1;shape=mxgraph.bootstrap.rrect;rSize=5;fillColor=inherit;fontColor=inherit;fontSize=14;" parent="1" vertex="1">
          <mxGeometry x="730" y="520" width="110" height="40" as="geometry" />
        </mxCell>
        <mxCell id="UFXFDAocX6gkSLZ_GbVa-23" value="" style="shape=triangle;direction=south;fillColor=#0085FC;strokeColor=none;perimeter=none;sketch=0;" parent="UFXFDAocX6gkSLZ_GbVa-22" vertex="1">
          <mxGeometry x="1" y="0.5" width="10" height="5" relative="1" as="geometry">
            <mxPoint x="-17" y="-2.5" as="offset" />
          </mxGeometry>
        </mxCell>
        <mxCell id="UFXFDAocX6gkSLZ_GbVa-27" value="&lt;span style=&quot;font-size: 18px;&quot;&gt;カスタム&lt;/span&gt;" style="rounded=0;whiteSpace=wrap;html=1;fillColor=none;strokeColor=none;" parent="1" vertex="1">
          <mxGeometry x="750" y="337.5" width="90" height="40" as="geometry" />
        </mxCell>
        <mxCell id="UFXFDAocX6gkSLZ_GbVa-32" value="問題数のプル" style="text;strokeColor=inherit;align=center;verticalAlign=middle;spacingLeft=10;spacingRight=10;overflow=hidden;points=[[0,0.5],[1,0.5]];portConstraint=eastwest;rotatable=0;whiteSpace=wrap;html=1;shape=mxgraph.bootstrap.rrect;rSize=5;fillColor=inherit;fontColor=inherit;fontSize=14;" parent="1" vertex="1">
          <mxGeometry x="740" y="427.5" width="110" height="40" as="geometry" />
        </mxCell>
        <mxCell id="UFXFDAocX6gkSLZ_GbVa-33" value="" style="shape=triangle;direction=south;fillColor=#0085FC;strokeColor=none;perimeter=none;sketch=0;" parent="UFXFDAocX6gkSLZ_GbVa-32" vertex="1">
          <mxGeometry x="1" y="0.5" width="10" height="5" relative="1" as="geometry">
            <mxPoint x="-17" y="-2.5" as="offset" />
          </mxGeometry>
        </mxCell>
        <mxCell id="UFXFDAocX6gkSLZ_GbVa-34" value="&lt;span style=&quot;font-size: 18px;&quot;&gt;モード&lt;/span&gt;" style="rounded=0;whiteSpace=wrap;html=1;fillColor=none;strokeColor=none;" parent="1" vertex="1">
          <mxGeometry x="970" y="337.5" width="90" height="40" as="geometry" />
        </mxCell>
        <mxCell id="UFXFDAocX6gkSLZ_GbVa-39" value="" style="shape=ellipse;fillColor=#eeeeee;strokeColor=#999999;gradientColor=#cccccc;html=1;align=left;spacingLeft=4;fontSize=17;fontColor=#FFFFFF;labelPosition=right;shadow=0;" parent="1" vertex="1">
          <mxGeometry x="950" y="-180" width="15" height="15" as="geometry" />
        </mxCell>
        <mxCell id="UFXFDAocX6gkSLZ_GbVa-40" value="&lt;font color=&quot;#ffffff&quot;&gt;一問一答&lt;/font&gt;" style="shape=ellipse;fillColor=#eeeeee;strokeColor=#999999;gradientColor=#cccccc;html=1;align=left;spacingLeft=4;fontSize=17;fontColor=#666666;labelPosition=right;shadow=0;" parent="1" vertex="1">
          <mxGeometry x="992.5" y="440" width="15" height="15" as="geometry" />
        </mxCell>
        <mxCell id="UFXFDAocX6gkSLZ_GbVa-43" value="&lt;font color=&quot;#ffffff&quot;&gt;不正解モード&lt;/font&gt;" style="shape=ellipse;fillColor=#eeeeee;strokeColor=#999999;gradientColor=#cccccc;html=1;align=left;spacingLeft=4;fontSize=17;fontColor=#666666;labelPosition=right;shadow=0;" parent="1" vertex="1">
          <mxGeometry x="992.5" y="490" width="15" height="15" as="geometry" />
        </mxCell>
        <mxCell id="UFXFDAocX6gkSLZ_GbVa-44" value="&lt;font color=&quot;#ffffff&quot;&gt;オリジナル問題を含める&lt;/font&gt;&lt;span style=&quot;color: rgba(0, 0, 0, 0); font-family: monospace; font-size: 0px;&quot;&gt;%3CmxGraphModel%3E%3Croot%3E%3CmxCell%20id%3D%220%22%2F%3E%3CmxCell%20id%3D%221%22%20parent%3D%220%22%2F%3E%3CmxCell%20id%3D%222%22%20value%3D%22%26lt%3Bfont%20color%3D%26quot%3B%23ffffff%26quot%3B%26gt%3B%E4%B8%8D%E6%AD%A3%E8%A7%A3%E3%83%A2%E3%83%BC%E3%83%89%26lt%3B%2Ffont%26gt%3B%22%20style%3D%22shape%3Dellipse%3BfillColor%3D%23eeeeee%3BstrokeColor%3D%23999999%3BgradientColor%3D%23cccccc%3Bhtml%3D1%3Balign%3Dleft%3BspacingLeft%3D4%3BfontSize%3D17%3BfontColor%3D%23666666%3BlabelPosition%3Dright%3Bshadow%3D0%3B%22%20vertex%3D%221%22%20parent%3D%221%22%3E%3CmxGeometry%20x%3D%22992.5%22%20y%3D%22490%22%20width%3D%2215%22%20height%3D%2215%22%20as%3D%22geometry%22%2F%3E%3C%2FmxCell%3E%3C%2Froot%3E%3C%2FmxGraphModel%3E&lt;/span&gt;" style="shape=ellipse;fillColor=#eeeeee;strokeColor=#999999;gradientColor=#cccccc;html=1;align=left;spacingLeft=4;fontSize=17;fontColor=#666666;labelPosition=right;shadow=0;" parent="1" vertex="1">
          <mxGeometry x="992.5" y="570" width="15" height="15" as="geometry" />
        </mxCell>
        <mxCell id="UFXFDAocX6gkSLZ_GbVa-45" value="&lt;font color=&quot;#ffffff&quot;&gt;過去問を含める&lt;/font&gt;" style="shape=ellipse;fillColor=#eeeeee;strokeColor=#999999;gradientColor=#cccccc;html=1;align=left;spacingLeft=4;fontSize=17;fontColor=#666666;labelPosition=right;shadow=0;" parent="1" vertex="1">
          <mxGeometry x="992.5" y="610" width="15" height="15" as="geometry" />
        </mxCell>
        <mxCell id="UFXFDAocX6gkSLZ_GbVa-48" value="MODESELECT" style="whiteSpace=wrap;html=1;shape=mxgraph.basic.document" parent="1" vertex="1">
          <mxGeometry x="985" y="337.5" width="105" height="40" as="geometry" />
        </mxCell>
        <mxCell id="UFXFDAocX6gkSLZ_GbVa-49" value="不正解のプル" style="text;strokeColor=inherit;align=center;verticalAlign=middle;spacingLeft=10;spacingRight=10;overflow=hidden;points=[[0,0.5],[1,0.5]];portConstraint=eastwest;rotatable=0;whiteSpace=wrap;html=1;shape=mxgraph.bootstrap.rrect;rSize=5;fillColor=inherit;fontColor=inherit;fontSize=14;" parent="1" vertex="1">
          <mxGeometry x="985" y="520" width="110" height="40" as="geometry" />
        </mxCell>
        <mxCell id="UFXFDAocX6gkSLZ_GbVa-50" value="" style="shape=triangle;direction=south;fillColor=#0085FC;strokeColor=none;perimeter=none;sketch=0;" parent="UFXFDAocX6gkSLZ_GbVa-49" vertex="1">
          <mxGeometry x="1" y="0.5" width="10" height="5" relative="1" as="geometry">
            <mxPoint x="-17" y="-2.5" as="offset" />
          </mxGeometry>
        </mxCell>
        <mxCell id="UFXFDAocX6gkSLZ_GbVa-51" value="CUSTOM" style="whiteSpace=wrap;html=1;shape=mxgraph.basic.document" parent="1" vertex="1">
          <mxGeometry x="742.5" y="337.5" width="105" height="40" as="geometry" />
        </mxCell>
        <mxCell id="UFXFDAocX6gkSLZ_GbVa-52" value="TYPE" style="whiteSpace=wrap;html=1;shape=mxgraph.basic.document" parent="1" vertex="1">
          <mxGeometry x="495" y="337.5" width="105" height="40" as="geometry" />
        </mxCell>
        <mxCell id="2T4IIuzR2kQzWMUNCNiE-35" value="pkkkkkkkkkkk" style="shape=table;startSize=15;container=1;collapsible=0;childLayout=tableLayout;strokeColor=#b1e4e8;fontSize=16;labelBackgroundColor=#b1e4e8;textShadow=0;strokeWidth=2;fontColor=#b1e4e8;" parent="1" vertex="1">
          <mxGeometry x="1580" y="55.13000000000011" width="97.5" height="79.25" as="geometry" />
        </mxCell>
        <mxCell id="2T4IIuzR2kQzWMUNCNiE-36" value="" style="shape=tableRow;horizontal=0;startSize=0;swimlaneHead=0;swimlaneBody=0;strokeColor=inherit;top=0;left=0;bottom=0;right=0;collapsible=0;dropTarget=0;fillColor=none;points=[[0,0.5],[1,0.5]];portConstraint=eastwest;fontSize=16;" parent="2T4IIuzR2kQzWMUNCNiE-35" vertex="1">
          <mxGeometry y="15" width="97.5" height="21" as="geometry" />
        </mxCell>
        <mxCell id="2T4IIuzR2kQzWMUNCNiE-37" value="" style="shape=partialRectangle;html=1;whiteSpace=wrap;connectable=0;strokeColor=inherit;overflow=hidden;fillColor=none;top=0;left=0;bottom=0;right=0;pointerEvents=1;fontSize=16;" parent="2T4IIuzR2kQzWMUNCNiE-36" vertex="1">
          <mxGeometry width="33" height="21" as="geometry">
            <mxRectangle width="33" height="21" as="alternateBounds" />
          </mxGeometry>
        </mxCell>
        <mxCell id="2T4IIuzR2kQzWMUNCNiE-38" value="" style="shape=partialRectangle;html=1;whiteSpace=wrap;connectable=0;strokeColor=inherit;overflow=hidden;fillColor=none;top=0;left=0;bottom=0;right=0;pointerEvents=1;fontSize=16;" parent="2T4IIuzR2kQzWMUNCNiE-36" vertex="1">
          <mxGeometry x="33" width="32" height="21" as="geometry">
            <mxRectangle width="32" height="21" as="alternateBounds" />
          </mxGeometry>
        </mxCell>
        <mxCell id="2T4IIuzR2kQzWMUNCNiE-39" value="" style="shape=partialRectangle;html=1;whiteSpace=wrap;connectable=0;strokeColor=inherit;overflow=hidden;fillColor=#A3FFFF;top=0;left=0;bottom=0;right=0;pointerEvents=1;fontSize=16;" parent="2T4IIuzR2kQzWMUNCNiE-36" vertex="1">
          <mxGeometry x="65" width="33" height="21" as="geometry">
            <mxRectangle width="33" height="21" as="alternateBounds" />
          </mxGeometry>
        </mxCell>
        <mxCell id="2T4IIuzR2kQzWMUNCNiE-40" value="" style="shape=tableRow;horizontal=0;startSize=0;swimlaneHead=0;swimlaneBody=0;strokeColor=inherit;top=0;left=0;bottom=0;right=0;collapsible=0;dropTarget=0;fillColor=none;points=[[0,0.5],[1,0.5]];portConstraint=eastwest;fontSize=16;" parent="2T4IIuzR2kQzWMUNCNiE-35" vertex="1">
          <mxGeometry y="36" width="97.5" height="21" as="geometry" />
        </mxCell>
        <mxCell id="2T4IIuzR2kQzWMUNCNiE-41" value="" style="shape=partialRectangle;html=1;whiteSpace=wrap;connectable=0;strokeColor=inherit;overflow=hidden;fillColor=none;top=0;left=0;bottom=0;right=0;pointerEvents=1;fontSize=16;" parent="2T4IIuzR2kQzWMUNCNiE-40" vertex="1">
          <mxGeometry width="33" height="21" as="geometry">
            <mxRectangle width="33" height="21" as="alternateBounds" />
          </mxGeometry>
        </mxCell>
        <mxCell id="2T4IIuzR2kQzWMUNCNiE-42" value="" style="shape=partialRectangle;html=1;whiteSpace=wrap;connectable=0;strokeColor=inherit;overflow=hidden;fillColor=none;top=0;left=0;bottom=0;right=0;pointerEvents=1;fontSize=16;" parent="2T4IIuzR2kQzWMUNCNiE-40" vertex="1">
          <mxGeometry x="33" width="32" height="21" as="geometry">
            <mxRectangle width="32" height="21" as="alternateBounds" />
          </mxGeometry>
        </mxCell>
        <mxCell id="2T4IIuzR2kQzWMUNCNiE-43" value="" style="shape=partialRectangle;html=1;whiteSpace=wrap;connectable=0;strokeColor=inherit;overflow=hidden;fillColor=none;top=0;left=0;bottom=0;right=0;pointerEvents=1;fontSize=16;" parent="2T4IIuzR2kQzWMUNCNiE-40" vertex="1">
          <mxGeometry x="65" width="33" height="21" as="geometry">
            <mxRectangle width="33" height="21" as="alternateBounds" />
          </mxGeometry>
        </mxCell>
        <mxCell id="2T4IIuzR2kQzWMUNCNiE-44" value="" style="shape=tableRow;horizontal=0;startSize=0;swimlaneHead=0;swimlaneBody=0;strokeColor=inherit;top=0;left=0;bottom=0;right=0;collapsible=0;dropTarget=0;fillColor=none;points=[[0,0.5],[1,0.5]];portConstraint=eastwest;fontSize=16;" parent="2T4IIuzR2kQzWMUNCNiE-35" vertex="1">
          <mxGeometry y="57" width="97.5" height="22" as="geometry" />
        </mxCell>
        <mxCell id="2T4IIuzR2kQzWMUNCNiE-45" value="" style="shape=partialRectangle;html=1;whiteSpace=wrap;connectable=0;strokeColor=inherit;overflow=hidden;fillColor=#ff8f8f;top=0;left=0;bottom=0;right=0;pointerEvents=1;fontSize=16;" parent="2T4IIuzR2kQzWMUNCNiE-44" vertex="1">
          <mxGeometry width="33" height="22" as="geometry">
            <mxRectangle width="33" height="22" as="alternateBounds" />
          </mxGeometry>
        </mxCell>
        <mxCell id="2T4IIuzR2kQzWMUNCNiE-46" value="" style="shape=partialRectangle;html=1;whiteSpace=wrap;connectable=0;strokeColor=inherit;overflow=hidden;fillColor=none;top=0;left=0;bottom=0;right=0;pointerEvents=1;fontSize=16;" parent="2T4IIuzR2kQzWMUNCNiE-44" vertex="1">
          <mxGeometry x="33" width="32" height="22" as="geometry">
            <mxRectangle width="32" height="22" as="alternateBounds" />
          </mxGeometry>
        </mxCell>
        <mxCell id="2T4IIuzR2kQzWMUNCNiE-47" value="" style="shape=partialRectangle;html=1;whiteSpace=wrap;connectable=0;strokeColor=inherit;overflow=hidden;fillColor=none;top=0;left=0;bottom=0;right=0;pointerEvents=1;fontSize=16;" parent="2T4IIuzR2kQzWMUNCNiE-44" vertex="1">
          <mxGeometry x="65" width="33" height="22" as="geometry">
            <mxRectangle width="33" height="22" as="alternateBounds" />
          </mxGeometry>
        </mxCell>
        <mxCell id="FKmk_wvEyAuVqBhHo64X-1" value="Table" style="shape=table;startSize=30;container=1;collapsible=0;childLayout=tableLayout;strokeColor=#6c8ebf;fontSize=16;fillColor=#dae8fc;" vertex="1" parent="1">
          <mxGeometry x="1027.5" y="2080" width="180" height="150" as="geometry" />
        </mxCell>
        <mxCell id="FKmk_wvEyAuVqBhHo64X-2" value="" style="shape=tableRow;horizontal=0;startSize=0;swimlaneHead=0;swimlaneBody=0;strokeColor=inherit;top=0;left=0;bottom=0;right=0;collapsible=0;dropTarget=0;fillColor=none;points=[[0,0.5],[1,0.5]];portConstraint=eastwest;fontSize=16;" vertex="1" parent="FKmk_wvEyAuVqBhHo64X-1">
          <mxGeometry y="30" width="180" height="40" as="geometry" />
        </mxCell>
        <mxCell id="FKmk_wvEyAuVqBhHo64X-3" value="" style="shape=partialRectangle;html=1;whiteSpace=wrap;connectable=0;strokeColor=inherit;overflow=hidden;fillColor=none;top=0;left=0;bottom=0;right=0;pointerEvents=1;fontSize=16;" vertex="1" parent="FKmk_wvEyAuVqBhHo64X-2">
          <mxGeometry width="60" height="40" as="geometry">
            <mxRectangle width="60" height="40" as="alternateBounds" />
          </mxGeometry>
        </mxCell>
        <mxCell id="FKmk_wvEyAuVqBhHo64X-4" value="" style="shape=partialRectangle;html=1;whiteSpace=wrap;connectable=0;strokeColor=inherit;overflow=hidden;fillColor=none;top=0;left=0;bottom=0;right=0;pointerEvents=1;fontSize=16;" vertex="1" parent="FKmk_wvEyAuVqBhHo64X-2">
          <mxGeometry x="60" width="60" height="40" as="geometry">
            <mxRectangle width="60" height="40" as="alternateBounds" />
          </mxGeometry>
        </mxCell>
        <mxCell id="FKmk_wvEyAuVqBhHo64X-5" value="" style="shape=partialRectangle;html=1;whiteSpace=wrap;connectable=0;strokeColor=inherit;overflow=hidden;fillColor=none;top=0;left=0;bottom=0;right=0;pointerEvents=1;fontSize=16;" vertex="1" parent="FKmk_wvEyAuVqBhHo64X-2">
          <mxGeometry x="120" width="60" height="40" as="geometry">
            <mxRectangle width="60" height="40" as="alternateBounds" />
          </mxGeometry>
        </mxCell>
        <mxCell id="FKmk_wvEyAuVqBhHo64X-6" value="" style="shape=tableRow;horizontal=0;startSize=0;swimlaneHead=0;swimlaneBody=0;strokeColor=inherit;top=0;left=0;bottom=0;right=0;collapsible=0;dropTarget=0;fillColor=none;points=[[0,0.5],[1,0.5]];portConstraint=eastwest;fontSize=16;" vertex="1" parent="FKmk_wvEyAuVqBhHo64X-1">
          <mxGeometry y="70" width="180" height="40" as="geometry" />
        </mxCell>
        <mxCell id="FKmk_wvEyAuVqBhHo64X-7" value="" style="shape=partialRectangle;html=1;whiteSpace=wrap;connectable=0;strokeColor=inherit;overflow=hidden;fillColor=none;top=0;left=0;bottom=0;right=0;pointerEvents=1;fontSize=16;" vertex="1" parent="FKmk_wvEyAuVqBhHo64X-6">
          <mxGeometry width="60" height="40" as="geometry">
            <mxRectangle width="60" height="40" as="alternateBounds" />
          </mxGeometry>
        </mxCell>
        <mxCell id="FKmk_wvEyAuVqBhHo64X-8" value="" style="shape=partialRectangle;html=1;whiteSpace=wrap;connectable=0;strokeColor=inherit;overflow=hidden;fillColor=none;top=0;left=0;bottom=0;right=0;pointerEvents=1;fontSize=16;" vertex="1" parent="FKmk_wvEyAuVqBhHo64X-6">
          <mxGeometry x="60" width="60" height="40" as="geometry">
            <mxRectangle width="60" height="40" as="alternateBounds" />
          </mxGeometry>
        </mxCell>
        <mxCell id="FKmk_wvEyAuVqBhHo64X-9" value="" style="shape=partialRectangle;html=1;whiteSpace=wrap;connectable=0;strokeColor=inherit;overflow=hidden;fillColor=none;top=0;left=0;bottom=0;right=0;pointerEvents=1;fontSize=16;" vertex="1" parent="FKmk_wvEyAuVqBhHo64X-6">
          <mxGeometry x="120" width="60" height="40" as="geometry">
            <mxRectangle width="60" height="40" as="alternateBounds" />
          </mxGeometry>
        </mxCell>
        <mxCell id="FKmk_wvEyAuVqBhHo64X-10" value="" style="shape=tableRow;horizontal=0;startSize=0;swimlaneHead=0;swimlaneBody=0;strokeColor=inherit;top=0;left=0;bottom=0;right=0;collapsible=0;dropTarget=0;fillColor=none;points=[[0,0.5],[1,0.5]];portConstraint=eastwest;fontSize=16;" vertex="1" parent="FKmk_wvEyAuVqBhHo64X-1">
          <mxGeometry y="110" width="180" height="40" as="geometry" />
        </mxCell>
        <mxCell id="FKmk_wvEyAuVqBhHo64X-11" value="" style="shape=partialRectangle;html=1;whiteSpace=wrap;connectable=0;strokeColor=inherit;overflow=hidden;fillColor=none;top=0;left=0;bottom=0;right=0;pointerEvents=1;fontSize=16;" vertex="1" parent="FKmk_wvEyAuVqBhHo64X-10">
          <mxGeometry width="60" height="40" as="geometry">
            <mxRectangle width="60" height="40" as="alternateBounds" />
          </mxGeometry>
        </mxCell>
        <mxCell id="FKmk_wvEyAuVqBhHo64X-12" value="" style="shape=partialRectangle;html=1;whiteSpace=wrap;connectable=0;strokeColor=inherit;overflow=hidden;fillColor=none;top=0;left=0;bottom=0;right=0;pointerEvents=1;fontSize=16;" vertex="1" parent="FKmk_wvEyAuVqBhHo64X-10">
          <mxGeometry x="60" width="60" height="40" as="geometry">
            <mxRectangle width="60" height="40" as="alternateBounds" />
          </mxGeometry>
        </mxCell>
        <mxCell id="FKmk_wvEyAuVqBhHo64X-13" value="" style="shape=partialRectangle;html=1;whiteSpace=wrap;connectable=0;strokeColor=inherit;overflow=hidden;fillColor=none;top=0;left=0;bottom=0;right=0;pointerEvents=1;fontSize=16;" vertex="1" parent="FKmk_wvEyAuVqBhHo64X-10">
          <mxGeometry x="120" width="60" height="40" as="geometry">
            <mxRectangle width="60" height="40" as="alternateBounds" />
          </mxGeometry>
        </mxCell>
      </root>
    </mxGraphModel>
  </diagram>
</mxfile>
